<?xml version="1.0" encoding="UTF-8" standalone="no"?><svg xmlns="http://www.w3.org/2000/svg" xmlns:xlink="http://www.w3.org/1999/xlink" contentScriptType="application/ecmascript" contentStyleType="text/css" height="1098px" preserveAspectRatio="none" style="width:968px;height:1098px;" version="1.1" viewBox="0 0 968 1098" width="968px" zoomAndPan="magnify"><defs><filter height="300%" id="f60x631b04a08" width="300%" x="-1" y="-1"><feGaussianBlur result="blurOut" stdDeviation="2.0"/><feColorMatrix in="blurOut" result="blurOut2" type="matrix" values="0 0 0 0 0 0 0 0 0 0 0 0 0 0 0 0 0 0 .4 0"/><feOffset dx="4.0" dy="4.0" in="blurOut2" result="blurOut3"/><feBlend in="SourceGraphic" in2="blurOut3" mode="normal"/></filter></defs><g><rect fill="#90EE90" height="1083.0625" style="stroke: #A80036; stroke-width: 1.0;" width="312" x="49" y="4"/><text fill="#000000" font-family="sans-serif" font-size="13" font-weight="bold" lengthAdjust="spacingAndGlyphs" textLength="38" x="184" y="17.4951">'View'</text><rect fill="#FFA07A" height="1083.0625" style="stroke: #A80036; stroke-width: 1.0;" width="594" x="363" y="4"/><text fill="#000000" font-family="sans-serif" font-size="13" font-weight="bold" lengthAdjust="spacingAndGlyphs" textLength="69" x="623.5" y="17.4951">'Controller'</text><rect fill="#FFFFFF" filter="url(#f60x631b04a08)" height="870.4922" style="stroke: #A80036; stroke-width: 1.0;" width="10" x="85" y="119.9609"/><rect fill="#FFFFFF" filter="url(#f60x631b04a08)" height="840.1406" style="stroke: #A80036; stroke-width: 1.0;" width="10" x="158.5" y="150.3125"/><rect fill="#FFFFFF" filter="url(#f60x631b04a08)" height="119.0547" style="stroke: #A80036; stroke-width: 1.0;" width="10" x="163.5" y="696.6406"/><rect fill="#FFFFFF" filter="url(#f60x631b04a08)" height="135.4063" style="stroke: #A80036; stroke-width: 1.0;" width="10" x="163.5" y="846.0469"/><rect fill="#FFFFFF" filter="url(#f60x631b04a08)" height="324.1641" style="stroke: #A80036; stroke-width: 1.0;" width="10" x="224" y="666.2891"/><rect fill="#FFFFFF" filter="url(#f60x631b04a08)" height="212.4609" style="stroke: #A80036; stroke-width: 1.0;" width="10" x="415.5" y="180.6641"/><rect fill="#FFFFFF" filter="url(#f60x631b04a08)" height="91.0547" style="stroke: #A80036; stroke-width: 1.0;" width="10" x="415.5" y="423.4766"/><rect fill="#FFFFFF" filter="url(#f60x631b04a08)" height="91.0547" style="stroke: #A80036; stroke-width: 1.0;" width="10" x="415.5" y="544.8828"/><rect fill="#FFFFFF" filter="url(#f60x631b04a08)" height="74.7031" style="stroke: #A80036; stroke-width: 1.0;" width="10" x="415.5" y="726.9922"/><rect fill="#FFFFFF" filter="url(#f60x631b04a08)" height="91.0547" style="stroke: #A80036; stroke-width: 1.0;" width="10" x="415.5" y="876.3984"/><rect fill="#FFFFFF" filter="url(#f60x631b04a08)" height="151.7578" style="stroke: #A80036; stroke-width: 1.0;" width="10" x="605.5" y="211.0156"/><rect fill="#FFFFFF" filter="url(#f60x631b04a08)" height="30.3516" style="stroke: #A80036; stroke-width: 1.0;" width="10" x="605.5" y="453.8281"/><rect fill="#FFFFFF" filter="url(#f60x631b04a08)" height="30.3516" style="stroke: #A80036; stroke-width: 1.0;" width="10" x="605.5" y="575.2344"/><rect fill="#FFFFFF" filter="url(#f60x631b04a08)" height="30.3516" style="stroke: #A80036; stroke-width: 1.0;" width="10" x="605.5" y="757.3438"/><rect fill="#FFFFFF" filter="url(#f60x631b04a08)" height="30.3516" style="stroke: #A80036; stroke-width: 1.0;" width="10" x="897.5" y="241.3672"/><rect fill="#FFFFFF" filter="url(#f60x631b04a08)" height="30.3516" style="stroke: #A80036; stroke-width: 1.0;" width="10" x="897.5" y="302.0703"/><rect fill="#FFFFFF" filter="url(#f60x631b04a08)" height="30.3516" style="stroke: #A80036; stroke-width: 1.0;" width="10" x="897.5" y="906.75"/><line style="stroke: #A80036; stroke-width: 1.0; stroke-dasharray: 5.0,5.0;" x1="25" x2="25" y1="87.6094" y2="999.4531"/><line style="stroke: #A80036; stroke-width: 1.0; stroke-dasharray: 5.0,5.0;" x1="90" x2="90" y1="87.6094" y2="999.4531"/><line style="stroke: #A80036; stroke-width: 1.0; stroke-dasharray: 5.0,5.0;" x1="163" x2="163" y1="87.6094" y2="999.4531"/><line style="stroke: #A80036; stroke-width: 1.0; stroke-dasharray: 5.0,5.0;" x1="229" x2="229" y1="87.6094" y2="999.4531"/><line style="stroke: #A80036; stroke-width: 1.0; stroke-dasharray: 5.0,5.0;" x1="314" x2="314" y1="87.6094" y2="999.4531"/><line style="stroke: #A80036; stroke-width: 1.0; stroke-dasharray: 5.0,5.0;" x1="420" x2="420" y1="87.6094" y2="999.4531"/><line style="stroke: #A80036; stroke-width: 1.0; stroke-dasharray: 5.0,5.0;" x1="610" x2="610" y1="87.6094" y2="999.4531"/><line style="stroke: #A80036; stroke-width: 1.0; stroke-dasharray: 5.0,5.0;" x1="902" x2="902" y1="87.6094" y2="999.4531"/><text fill="#000000" font-family="sans-serif" font-size="14" lengthAdjust="spacingAndGlyphs" textLength="29" x="8" y="84.5332">User</text><ellipse cx="25.5" cy="13" fill="#FEFECE" filter="url(#f60x631b04a08)" rx="8" ry="8" style="stroke: #A80036; stroke-width: 2.0;"/><path d="M25.5,21 L25.5,48 M12.5,29 L38.5,29 M25.5,48 L12.5,63 M25.5,48 L38.5,63 " fill="none" filter="url(#f60x631b04a08)" style="stroke: #A80036; stroke-width: 2.0;"/><text fill="#000000" font-family="sans-serif" font-size="14" lengthAdjust="spacingAndGlyphs" textLength="29" x="8" y="1012.9863">User</text><ellipse cx="25.5" cy="1026.0625" fill="#FEFECE" filter="url(#f60x631b04a08)" rx="8" ry="8" style="stroke: #A80036; stroke-width: 2.0;"/><path d="M25.5,1034.0625 L25.5,1061.0625 M12.5,1042.0625 L38.5,1042.0625 M25.5,1061.0625 L12.5,1076.0625 M25.5,1061.0625 L38.5,1076.0625 " fill="none" filter="url(#f60x631b04a08)" style="stroke: #A80036; stroke-width: 2.0;"/><rect fill="#FEFECE" filter="url(#f60x631b04a08)" height="31.6094" style="stroke: #A80036; stroke-width: 1.5;" width="70" x="53" y="51"/><text fill="#000000" font-family="sans-serif" font-size="14" lengthAdjust="spacingAndGlyphs" textLength="56" x="60" y="72.5332">MapView</text><rect fill="#FEFECE" filter="url(#f60x631b04a08)" height="31.6094" style="stroke: #A80036; stroke-width: 1.5;" width="70" x="53" y="998.4531"/><text fill="#000000" font-family="sans-serif" font-size="14" lengthAdjust="spacingAndGlyphs" textLength="56" x="60" y="1019.9863">MapView</text><rect fill="#FEFECE" filter="url(#f60x631b04a08)" height="31.6094" style="stroke: #A80036; stroke-width: 1.5;" width="41" x="141" y="51"/><text fill="#000000" font-family="sans-serif" font-size="14" lengthAdjust="spacingAndGlyphs" textLength="27" x="148" y="72.5332">Map</text><rect fill="#FEFECE" filter="url(#f60x631b04a08)" height="31.6094" style="stroke: #A80036; stroke-width: 1.5;" width="41" x="141" y="998.4531"/><text fill="#000000" font-family="sans-serif" font-size="14" lengthAdjust="spacingAndGlyphs" textLength="27" x="148" y="1019.9863">Map</text><rect fill="#FEFECE" filter="url(#f60x631b04a08)" height="31.6094" style="stroke: #A80036; stroke-width: 1.5;" width="62" x="196" y="51"/><text fill="#000000" font-family="sans-serif" font-size="14" lengthAdjust="spacingAndGlyphs" textLength="48" x="203" y="72.5332">Legend</text><rect fill="#FEFECE" filter="url(#f60x631b04a08)" height="31.6094" style="stroke: #A80036; stroke-width: 1.5;" width="62" x="196" y="998.4531"/><text fill="#000000" font-family="sans-serif" font-size="14" lengthAdjust="spacingAndGlyphs" textLength="48" x="203" y="1019.9863">Legend</text><rect fill="#FEFECE" filter="url(#f60x631b04a08)" height="31.6094" style="stroke: #A80036; stroke-width: 1.5;" width="81" x="272" y="51"/><text fill="#000000" font-family="sans-serif" font-size="14" lengthAdjust="spacingAndGlyphs" textLength="67" x="279" y="72.5332">StationInfo</text><rect fill="#FEFECE" filter="url(#f60x631b04a08)" height="31.6094" style="stroke: #A80036; stroke-width: 1.5;" width="81" x="272" y="998.4531"/><text fill="#000000" font-family="sans-serif" font-size="14" lengthAdjust="spacingAndGlyphs" textLength="67" x="279" y="1019.9863">StationInfo</text><rect fill="#FEFECE" filter="url(#f60x631b04a08)" height="31.6094" style="stroke: #A80036; stroke-width: 1.5;" width="103" x="367" y="51"/><text fill="#000000" font-family="sans-serif" font-size="14" lengthAdjust="spacingAndGlyphs" textLength="89" x="374" y="72.5332">MapController</text><rect fill="#FEFECE" filter="url(#f60x631b04a08)" height="31.6094" style="stroke: #A80036; stroke-width: 1.5;" width="103" x="367" y="998.4531"/><text fill="#000000" font-family="sans-serif" font-size="14" lengthAdjust="spacingAndGlyphs" textLength="89" x="374" y="1019.9863">MapController</text><rect fill="#FEFECE" filter="url(#f60x631b04a08)" height="31.6094" style="stroke: #A80036; stroke-width: 1.5;" width="143" x="537" y="51"/><text fill="#000000" font-family="sans-serif" font-size="14" lengthAdjust="spacingAndGlyphs" textLength="129" x="544" y="72.5332">StationConfiguration</text><rect fill="#FEFECE" filter="url(#f60x631b04a08)" height="31.6094" style="stroke: #A80036; stroke-width: 1.5;" width="143" x="537" y="998.4531"/><text fill="#000000" font-family="sans-serif" font-size="14" lengthAdjust="spacingAndGlyphs" textLength="129" x="544" y="1019.9863">StationConfiguration</text><rect fill="#FEFECE" filter="url(#f60x631b04a08)" height="31.6094" style="stroke: #A80036; stroke-width: 1.5;" width="97" x="852" y="51"/><text fill="#000000" font-family="sans-serif" font-size="14" lengthAdjust="spacingAndGlyphs" textLength="83" x="859" y="72.5332">DataProvider</text><rect fill="#FEFECE" filter="url(#f60x631b04a08)" height="31.6094" style="stroke: #A80036; stroke-width: 1.5;" width="97" x="852" y="998.4531"/><text fill="#000000" font-family="sans-serif" font-size="14" lengthAdjust="spacingAndGlyphs" textLength="83" x="859" y="1019.9863">DataProvider</text><rect fill="#FFFFFF" filter="url(#f60x631b04a08)" height="870.4922" style="stroke: #A80036; stroke-width: 1.0;" width="10" x="85" y="119.9609"/><rect fill="#FFFFFF" filter="url(#f60x631b04a08)" height="840.1406" style="stroke: #A80036; stroke-width: 1.0;" width="10" x="158.5" y="150.3125"/><rect fill="#FFFFFF" filter="url(#f60x631b04a08)" height="119.0547" style="stroke: #A80036; stroke-width: 1.0;" width="10" x="163.5" y="696.6406"/><rect fill="#FFFFFF" filter="url(#f60x631b04a08)" height="135.4063" style="stroke: #A80036; stroke-width: 1.0;" width="10" x="163.5" y="846.0469"/><rect fill="#FFFFFF" filter="url(#f60x631b04a08)" height="324.1641" style="stroke: #A80036; stroke-width: 1.0;" width="10" x="224" y="666.2891"/><rect fill="#FFFFFF" filter="url(#f60x631b04a08)" height="212.4609" style="stroke: #A80036; stroke-width: 1.0;" width="10" x="415.5" y="180.6641"/><rect fill="#FFFFFF" filter="url(#f60x631b04a08)" height="91.0547" style="stroke: #A80036; stroke-width: 1.0;" width="10" x="415.5" y="423.4766"/><rect fill="#FFFFFF" filter="url(#f60x631b04a08)" height="91.0547" style="stroke: #A80036; stroke-width: 1.0;" width="10" x="415.5" y="544.8828"/><rect fill="#FFFFFF" filter="url(#f60x631b04a08)" height="74.7031" style="stroke: #A80036; stroke-width: 1.0;" width="10" x="415.5" y="726.9922"/><rect fill="#FFFFFF" filter="url(#f60x631b04a08)" height="91.0547" style="stroke: #A80036; stroke-width: 1.0;" width="10" x="415.5" y="876.3984"/><rect fill="#FFFFFF" filter="url(#f60x631b04a08)" height="151.7578" style="stroke: #A80036; stroke-width: 1.0;" width="10" x="605.5" y="211.0156"/><rect fill="#FFFFFF" filter="url(#f60x631b04a08)" height="30.3516" style="stroke: #A80036; stroke-width: 1.0;" width="10" x="605.5" y="453.8281"/><rect fill="#FFFFFF" filter="url(#f60x631b04a08)" height="30.3516" style="stroke: #A80036; stroke-width: 1.0;" width="10" x="605.5" y="575.2344"/><rect fill="#FFFFFF" filter="url(#f60x631b04a08)" height="30.3516" style="stroke: #A80036; stroke-width: 1.0;" width="10" x="605.5" y="757.3438"/><rect fill="#FFFFFF" filter="url(#f60x631b04a08)" height="30.3516" style="stroke: #A80036; stroke-width: 1.0;" width="10" x="897.5" y="241.3672"/><rect fill="#FFFFFF" filter="url(#f60x631b04a08)" height="30.3516" style="stroke: #A80036; stroke-width: 1.0;" width="10" x="897.5" y="302.0703"/><rect fill="#FFFFFF" filter="url(#f60x631b04a08)" height="30.3516" style="stroke: #A80036; stroke-width: 1.0;" width="10" x="897.5" y="906.75"/><polygon fill="#A80036" points="73,115.9609,83,119.9609,73,123.9609,77,119.9609" style="stroke: #A80036; stroke-width: 1.0;"/><line style="stroke: #A80036; stroke-width: 1.0;" x1="25.5" x2="79" y1="119.9609" y2="119.9609"/><text fill="#000000" font-family="sans-serif" font-size="13" lengthAdjust="spacingAndGlyphs" textLength="36" x="32.5" y="115.1045">open()</text><polygon fill="#A80036" points="146.5,146.3125,156.5,150.3125,146.5,154.3125,150.5,150.3125" style="stroke: #A80036; stroke-width: 1.0;"/><line style="stroke: #A80036; stroke-width: 1.0;" x1="95" x2="152.5" y1="150.3125" y2="150.3125"/><text fill="#000000" font-family="sans-serif" font-size="13" lengthAdjust="spacingAndGlyphs" textLength="36" x="102" y="145.4561">open()</text><polygon fill="#A80036" points="403.5,176.6641,413.5,180.6641,403.5,184.6641,407.5,180.6641" style="stroke: #A80036; stroke-width: 1.0;"/><line style="stroke: #A80036; stroke-width: 1.0;" x1="168.5" x2="409.5" y1="180.6641" y2="180.6641"/><text fill="#000000" font-family="sans-serif" font-size="13" lengthAdjust="spacingAndGlyphs" textLength="52" x="175.5" y="175.8076">getPins()</text><polygon fill="#A80036" points="593.5,207.0156,603.5,211.0156,593.5,215.0156,597.5,211.0156" style="stroke: #A80036; stroke-width: 1.0;"/><line style="stroke: #A80036; stroke-width: 1.0;" x1="425.5" x2="599.5" y1="211.0156" y2="211.0156"/><text fill="#000000" font-family="sans-serif" font-size="13" lengthAdjust="spacingAndGlyphs" textLength="52" x="432.5" y="206.1592">getPins()</text><polygon fill="#A80036" points="885.5,237.3672,895.5,241.3672,885.5,245.3672,889.5,241.3672" style="stroke: #A80036; stroke-width: 1.0;"/><line style="stroke: #A80036; stroke-width: 1.0;" x1="615.5" x2="891.5" y1="241.3672" y2="241.3672"/><text fill="#000000" font-family="sans-serif" font-size="13" lengthAdjust="spacingAndGlyphs" textLength="263" x="622.5" y="236.5107">getLatestObservations(center, radius, feature)</text><polygon fill="#A80036" points="626.5,267.7188,616.5,271.7188,626.5,275.7188,622.5,271.7188" style="stroke: #A80036; stroke-width: 1.0;"/><line style="stroke: #A80036; stroke-width: 1.0; stroke-dasharray: 2.0,2.0;" x1="620.5" x2="901.5" y1="271.7188" y2="271.7188"/><text fill="#000000" font-family="sans-serif" font-size="13" lengthAdjust="spacingAndGlyphs" textLength="72" x="632.5" y="266.8623">observations</text><polygon fill="#A80036" points="885.5,298.0703,895.5,302.0703,885.5,306.0703,889.5,302.0703" style="stroke: #A80036; stroke-width: 1.0;"/><line style="stroke: #A80036; stroke-width: 1.0;" x1="615.5" x2="891.5" y1="302.0703" y2="302.0703"/><text fill="#000000" font-family="sans-serif" font-size="13" lengthAdjust="spacingAndGlyphs" textLength="163" x="622.5" y="297.2139">getStationsIn(center, radius)</text><polygon fill="#A80036" points="626.5,328.4219,616.5,332.4219,626.5,336.4219,622.5,332.4219" style="stroke: #A80036; stroke-width: 1.0;"/><line style="stroke: #A80036; stroke-width: 1.0; stroke-dasharray: 2.0,2.0;" x1="620.5" x2="901.5" y1="332.4219" y2="332.4219"/><text fill="#000000" font-family="sans-serif" font-size="13" lengthAdjust="spacingAndGlyphs" textLength="46" x="632.5" y="327.5654">stations</text><polygon fill="#A80036" points="436.5,358.7734,426.5,362.7734,436.5,366.7734,432.5,362.7734" style="stroke: #A80036; stroke-width: 1.0;"/><line style="stroke: #A80036; stroke-width: 1.0; stroke-dasharray: 2.0,2.0;" x1="430.5" x2="609.5" y1="362.7734" y2="362.7734"/><text fill="#000000" font-family="sans-serif" font-size="13" lengthAdjust="spacingAndGlyphs" textLength="24" x="442.5" y="357.917">pins</text><polygon fill="#A80036" points="179.5,389.125,169.5,393.125,179.5,397.125,175.5,393.125" style="stroke: #A80036; stroke-width: 1.0;"/><line style="stroke: #A80036; stroke-width: 1.0; stroke-dasharray: 2.0,2.0;" x1="173.5" x2="419.5" y1="393.125" y2="393.125"/><text fill="#000000" font-family="sans-serif" font-size="13" lengthAdjust="spacingAndGlyphs" textLength="24" x="185.5" y="388.2686">pins</text><polygon fill="#A80036" points="403.5,419.4766,413.5,423.4766,403.5,427.4766,407.5,423.4766" style="stroke: #A80036; stroke-width: 1.0;"/><line style="stroke: #A80036; stroke-width: 1.0;" x1="168.5" x2="409.5" y1="423.4766" y2="423.4766"/><text fill="#000000" font-family="sans-serif" font-size="13" lengthAdjust="spacingAndGlyphs" textLength="80" x="175.5" y="418.6201">getPolygons()</text><polygon fill="#A80036" points="593.5,449.8281,603.5,453.8281,593.5,457.8281,597.5,453.8281" style="stroke: #A80036; stroke-width: 1.0;"/><line style="stroke: #A80036; stroke-width: 1.0;" x1="425.5" x2="599.5" y1="453.8281" y2="453.8281"/><text fill="#000000" font-family="sans-serif" font-size="13" lengthAdjust="spacingAndGlyphs" textLength="80" x="432.5" y="448.9717">getPolygons()</text><polygon fill="#A80036" points="436.5,480.1797,426.5,484.1797,436.5,488.1797,432.5,484.1797" style="stroke: #A80036; stroke-width: 1.0;"/><line style="stroke: #A80036; stroke-width: 1.0; stroke-dasharray: 2.0,2.0;" x1="430.5" x2="609.5" y1="484.1797" y2="484.1797"/><text fill="#000000" font-family="sans-serif" font-size="13" lengthAdjust="spacingAndGlyphs" textLength="8" x="442.5" y="479.3232">[]</text><polygon fill="#A80036" points="179.5,510.5313,169.5,514.5313,179.5,518.5313,175.5,514.5313" style="stroke: #A80036; stroke-width: 1.0;"/><line style="stroke: #A80036; stroke-width: 1.0; stroke-dasharray: 2.0,2.0;" x1="173.5" x2="419.5" y1="514.5313" y2="514.5313"/><text fill="#000000" font-family="sans-serif" font-size="13" lengthAdjust="spacingAndGlyphs" textLength="8" x="185.5" y="509.6748">[]</text><polygon fill="#A80036" points="403.5,540.8828,413.5,544.8828,403.5,548.8828,407.5,544.8828" style="stroke: #A80036; stroke-width: 1.0;"/><line style="stroke: #A80036; stroke-width: 1.0;" x1="95" x2="409.5" y1="544.8828" y2="544.8828"/><text fill="#000000" font-family="sans-serif" font-size="13" lengthAdjust="spacingAndGlyphs" textLength="59" x="102" y="540.0264">getScale()</text><polygon fill="#A80036" points="593.5,571.2344,603.5,575.2344,593.5,579.2344,597.5,575.2344" style="stroke: #A80036; stroke-width: 1.0;"/><line style="stroke: #A80036; stroke-width: 1.0;" x1="425.5" x2="599.5" y1="575.2344" y2="575.2344"/><text fill="#000000" font-family="sans-serif" font-size="13" lengthAdjust="spacingAndGlyphs" textLength="59" x="432.5" y="570.3779">getScale()</text><polygon fill="#A80036" points="436.5,601.5859,426.5,605.5859,436.5,609.5859,432.5,605.5859" style="stroke: #A80036; stroke-width: 1.0;"/><line style="stroke: #A80036; stroke-width: 1.0; stroke-dasharray: 2.0,2.0;" x1="430.5" x2="609.5" y1="605.5859" y2="605.5859"/><text fill="#000000" font-family="sans-serif" font-size="13" lengthAdjust="spacingAndGlyphs" textLength="31" x="442.5" y="600.7295">scale</text><polygon fill="#A80036" points="106,631.9375,96,635.9375,106,639.9375,102,635.9375" style="stroke: #A80036; stroke-width: 1.0;"/><line style="stroke: #A80036; stroke-width: 1.0; stroke-dasharray: 2.0,2.0;" x1="100" x2="419.5" y1="635.9375" y2="635.9375"/><text fill="#000000" font-family="sans-serif" font-size="13" lengthAdjust="spacingAndGlyphs" textLength="31" x="112" y="631.0811">scale</text><polygon fill="#A80036" points="212,662.2891,222,666.2891,212,670.2891,216,666.2891" style="stroke: #A80036; stroke-width: 1.0;"/><line style="stroke: #A80036; stroke-width: 1.0;" x1="95" x2="218" y1="666.2891" y2="666.2891"/><text fill="#000000" font-family="sans-serif" font-size="13" lengthAdjust="spacingAndGlyphs" textLength="67" x="102" y="661.4326">open(scale)</text><polygon fill="#A80036" points="151.5,692.6406,161.5,696.6406,151.5,700.6406,155.5,696.6406" style="stroke: #A80036; stroke-width: 1.0;"/><line style="stroke: #A80036; stroke-width: 1.0;" x1="25.5" x2="157.5" y1="696.6406" y2="696.6406"/><text fill="#000000" font-family="sans-serif" font-size="13" lengthAdjust="spacingAndGlyphs" textLength="40" x="32.5" y="691.7842">zoom()</text><polygon fill="#A80036" points="403.5,722.9922,413.5,726.9922,403.5,730.9922,407.5,726.9922" style="stroke: #A80036; stroke-width: 1.0;"/><line style="stroke: #A80036; stroke-width: 1.0;" x1="173.5" x2="409.5" y1="726.9922" y2="726.9922"/><text fill="#000000" font-family="sans-serif" font-size="13" lengthAdjust="spacingAndGlyphs" textLength="186" x="180.5" y="722.1357">handleViewportChange(viewport)</text><polygon fill="#A80036" points="593.5,753.3438,603.5,757.3438,593.5,761.3438,597.5,757.3438" style="stroke: #A80036; stroke-width: 1.0;"/><line style="stroke: #A80036; stroke-width: 1.0;" x1="425.5" x2="599.5" y1="757.3438" y2="757.3438"/><text fill="#000000" font-family="sans-serif" font-size="13" lengthAdjust="spacingAndGlyphs" textLength="161" x="432.5" y="752.4873">getPins, Polygons wie oben</text><polygon fill="#A80036" points="436.5,783.6953,426.5,787.6953,436.5,791.6953,432.5,787.6953" style="stroke: #A80036; stroke-width: 1.0;"/><line style="stroke: #A80036; stroke-width: 1.0; stroke-dasharray: 2.0,2.0;" x1="430.5" x2="609.5" y1="787.6953" y2="787.6953"/><text fill="#000000" font-family="sans-serif" font-size="13" lengthAdjust="spacingAndGlyphs" textLength="84" x="442.5" y="782.8389">pins, polygons</text><polygon fill="#A80036" points="184.5,797.6953,174.5,801.6953,184.5,805.6953,180.5,801.6953" style="stroke: #A80036; stroke-width: 1.0;"/><line style="stroke: #A80036; stroke-width: 1.0; stroke-dasharray: 2.0,2.0;" x1="178.5" x2="419.5" y1="801.6953" y2="801.6953"/><polygon fill="#A80036" points="36.5,811.6953,26.5,815.6953,36.5,819.6953,32.5,815.6953" style="stroke: #A80036; stroke-width: 1.0;"/><line style="stroke: #A80036; stroke-width: 1.0; stroke-dasharray: 2.0,2.0;" x1="30.5" x2="157.5" y1="815.6953" y2="815.6953"/><polygon fill="#A80036" points="151.5,842.0469,161.5,846.0469,151.5,850.0469,155.5,846.0469" style="stroke: #A80036; stroke-width: 1.0;"/><line style="stroke: #A80036; stroke-width: 1.0;" x1="25.5" x2="157.5" y1="846.0469" y2="846.0469"/><text fill="#000000" font-family="sans-serif" font-size="13" lengthAdjust="spacingAndGlyphs" textLength="109" x="32.5" y="841.1904">clickOnMarker(pin)</text><polygon fill="#A80036" points="403.5,872.3984,413.5,876.3984,403.5,880.3984,407.5,876.3984" style="stroke: #A80036; stroke-width: 1.0;"/><line style="stroke: #A80036; stroke-width: 1.0;" x1="173.5" x2="409.5" y1="876.3984" y2="876.3984"/><text fill="#000000" font-family="sans-serif" font-size="13" lengthAdjust="spacingAndGlyphs" textLength="100" x="180.5" y="871.542">handlePopup(pin)</text><polygon fill="#A80036" points="885.5,902.75,895.5,906.75,885.5,910.75,889.5,906.75" style="stroke: #A80036; stroke-width: 1.0;"/><line style="stroke: #A80036; stroke-width: 1.0;" x1="425.5" x2="891.5" y1="906.75" y2="906.75"/><text fill="#000000" font-family="sans-serif" font-size="13" lengthAdjust="spacingAndGlyphs" textLength="77" x="432.5" y="901.8936">getStation(id)</text><polygon fill="#A80036" points="436.5,933.1016,426.5,937.1016,436.5,941.1016,432.5,937.1016" style="stroke: #A80036; stroke-width: 1.0;"/><line style="stroke: #A80036; stroke-width: 1.0; stroke-dasharray: 2.0,2.0;" x1="430.5" x2="901.5" y1="937.1016" y2="937.1016"/><text fill="#000000" font-family="sans-serif" font-size="13" lengthAdjust="spacingAndGlyphs" textLength="39" x="442.5" y="932.2451">station</text><polygon fill="#A80036" points="184.5,963.4531,174.5,967.4531,184.5,971.4531,180.5,967.4531" style="stroke: #A80036; stroke-width: 1.0;"/><line style="stroke: #A80036; stroke-width: 1.0; stroke-dasharray: 2.0,2.0;" x1="178.5" x2="419.5" y1="967.4531" y2="967.4531"/><text fill="#000000" font-family="sans-serif" font-size="13" lengthAdjust="spacingAndGlyphs" textLength="39" x="190.5" y="962.5967">station</text><polygon fill="#A80036" points="36.5,977.4531,26.5,981.4531,36.5,985.4531,32.5,981.4531" style="stroke: #A80036; stroke-width: 1.0;"/><line style="stroke: #A80036; stroke-width: 1.0; stroke-dasharray: 2.0,2.0;" x1="30.5" x2="157.5" y1="981.4531" y2="981.4531"/><!--MD5=[d0731fc7f8d1d94af98260ca9e30f6d8]
@startuml MapPageScenario

actor User

box 'View' #LightGreen
participant MapView
participant Map
participant Legend 
participant StationInfo
end box

box 'Controller' #LightSalmon
participant MapController
participant StationConfiguration

participant DataProvider
end box
User -> MapView ++ : open()
MapView -> Map ++ : open()
Map -> MapController ++ : getPins()
MapController -> StationConfiguration ++ : getPins()
StationConfiguration -> DataProvider ++ : getLatestObservations(center, radius, feature)
return observations
StationConfiguration -> DataProvider ++ : getStationsIn(center, radius)
return stations
return pins
return pins
Map -> MapController ++ : getPolygons()
MapController -> StationConfiguration ++ : getPolygons()
return []
return []
MapView -> MapController ++ : getScale()
MapController -> StationConfiguration ++ : getScale()
return scale
return scale
MapView -> Legend ++ : open(scale)

'Nutzer zoomt'
User -> Map ++ : zoom()
Map -> MapController ++ : handleViewportChange(viewport)
MapController -> StationConfiguration ++ : getPins, Polygons wie oben
return pins, polygons
return 
return

'Nutzer wählt Station'
User -> Map ++ : clickOnMarker(pin)
Map -> MapController ++ : handlePopup(pin)
MapController -> DataProvider ++ : getStation(id)
return station
return station
return
@enduml

@startuml MapPageScenario

actor User

box 'View' #LightGreen
participant MapView
participant Map
participant Legend 
participant StationInfo
end box

box 'Controller' #LightSalmon
participant MapController
participant StationConfiguration

participant DataProvider
end box
User -> MapView ++ : open()
MapView -> Map ++ : open()
Map -> MapController ++ : getPins()
MapController -> StationConfiguration ++ : getPins()
StationConfiguration -> DataProvider ++ : getLatestObservations(center, radius, feature)
return observations
StationConfiguration -> DataProvider ++ : getStationsIn(center, radius)
return stations
return pins
return pins
Map -> MapController ++ : getPolygons()
MapController -> StationConfiguration ++ : getPolygons()
return []
return []
MapView -> MapController ++ : getScale()
MapController -> StationConfiguration ++ : getScale()
return scale
return scale
MapView -> Legend ++ : open(scale)

User -> Map ++ : zoom()
Map -> MapController ++ : handleViewportChange(viewport)
MapController -> StationConfiguration ++ : getPins, Polygons wie oben
return pins, polygons
return 
return

User -> Map ++ : clickOnMarker(pin)
Map -> MapController ++ : handlePopup(pin)
MapController -> DataProvider ++ : getStation(id)
return station
return station
return
@enduml

PlantUML version 1.2020.14(Sat Jun 20 16:14:34 CEST 2020)
(GPL source distribution)
Java Runtime: OpenJDK Runtime Environment
JVM: OpenJDK 64-Bit Server VM
Default Encoding: Cp1252
Language: de
Country: DE
--></g></svg>